HIERARCHY
ROOT root
{
	OFFSET	0	13.1	24.9
	CHANNELS 6  Xposition Yposition Zposition Xrotation Yrotation Zrotation
	JOINT spine_1
	{
		OFFSET	0	9.99999	0
		CHANNELS 3  Xrotation Yrotation Zrotation
		JOINT spine_2
		{
			OFFSET	0	112	-10
			CHANNELS 3  Xrotation Yrotation Zrotation
			JOINT spine_3
			{
				OFFSET	0	206.5	19.3
				CHANNELS 3  Xrotation Yrotation Zrotation
				JOINT spine_4
				{
					OFFSET	0	110.4	14.6
					CHANNELS 3  Xrotation Yrotation Zrotation
					JOINT neck_1
					{
						OFFSET	0	71.8	-50.3
						CHANNELS 3  Xrotation Yrotation Zrotation
						JOINT neck_2
						{
							OFFSET	0	86.2	-25.8
							CHANNELS 3  Xrotation Yrotation Zrotation
							JOINT head_ee
							{
								OFFSET	0	179.8	-8.7
								CHANNELS 3  Xrotation Yrotation Zrotation
								End Site
								{
									OFFSET	1	0	0
								}
							}
						}
					}
					JOINT left_clavicle
					{
						OFFSET	-43.2	22.4	-70.8
						CHANNELS 3  Xrotation Yrotation Zrotation
						JOINT left_shoulder
						{
							OFFSET	-93.9	-5.79999	48.7
							CHANNELS 3  Xrotation Yrotation Zrotation
							JOINT left_elbow
							{
								OFFSET	-291.4	-30.8	15.2
								CHANNELS 3  Xrotation Yrotation Zrotation
								JOINT left_lowarm_twist
								{
									OFFSET	-110.7	-3.89999	13.6
									CHANNELS 3  Xrotation Yrotation Zrotation
									JOINT left_hand
									{
										OFFSET	-110.7	-3.89999	13.6
										CHANNELS 3  Xrotation Yrotation Zrotation
										JOINT left_ee
										{
											OFFSET	-80.8	-5.10001	12.1
											CHANNELS 3  Xrotation Yrotation Zrotation
											End Site
											{
												OFFSET	1	0	0
											}
										}
									}
								}
							}
						}
					}
					JOINT right_clavicle
					{
						OFFSET	43.2	22.4	-70.8
						CHANNELS 3  Xrotation Yrotation Zrotation
						JOINT right_shoulder
						{
							OFFSET	93.9	-5.79999	48.7
							CHANNELS 3  Xrotation Yrotation Zrotation
							JOINT right_elbow
							{
								OFFSET	291.4	-30.8	15.2
								CHANNELS 3  Xrotation Yrotation Zrotation
								JOINT right_lowarm_twist
								{
									OFFSET	110.7	-3.89999	13.6
									CHANNELS 3  Xrotation Yrotation Zrotation
									JOINT right_hand
									{
										OFFSET	110.7	-3.89999	13.6
										CHANNELS 3  Xrotation Yrotation Zrotation
										JOINT right_ee
										{
											OFFSET	80.8	-5.10001	12.1
											CHANNELS 3  Xrotation Yrotation Zrotation
											End Site
											{
												OFFSET	1	0	0
											}
										}
									}
								}
							}
						}
					}
				}
			}
		}
	}
	JOINT left_hip
	{
		OFFSET	-82.8	-127.5	0.300001
		CHANNELS 3  Xrotation Yrotation Zrotation
		JOINT left_knee
		{
			OFFSET	-28.2	-396.7	2.2
			CHANNELS 3  Xrotation Yrotation Zrotation
			JOINT left_ankle
			{
				OFFSET	-11.7	-411.3	35.4
				CHANNELS 3  Xrotation Yrotation Zrotation
				JOINT left_toes
				{
					OFFSET	0	-60	-88.6
					CHANNELS 3  Xrotation Yrotation Zrotation
					JOINT left_foot_ee
					{
						OFFSET	-22.5	-16.5	-42.2
						CHANNELS 3  Xrotation Yrotation Zrotation
						End Site
						{
							OFFSET	1	0	0
						}
					}
				}
			}
		}
	}
	JOINT right_hip
	{
		OFFSET	82.8	-127.5	0.300001
		CHANNELS 3  Xrotation Yrotation Zrotation
		JOINT right_knee
		{
			OFFSET	28.2	-396.7	2.2
			CHANNELS 3  Xrotation Yrotation Zrotation
			JOINT right_ankle
			{
				OFFSET	11.7	-411.3	35.4
				CHANNELS 3  Xrotation Yrotation Zrotation
				JOINT right_toes
				{
					OFFSET	0	-60	-88.6
					CHANNELS 3  Xrotation Yrotation Zrotation
					JOINT right_foot_ee
					{
						OFFSET	22.5	-16.5	-42.2
						CHANNELS 3  Xrotation Yrotation Zrotation
						End Site
						{
							OFFSET	1	0	0
						}
					}
				}
			}
		}
	}
}
MOTION
Frames: 9
Frame Time: 0.02
391.555 721.904 -1204.45 -153.525 -48.1239 -159.418 6.62753 0.378982 1.09332 6.62815 0.308648 1.11522 6.6333 0.200397 1.13965 6.63168 0.377858 1.09371 -12.542 14.903 0.280421 -13.063 28.1504 4.80134 -0.0 0.0 -0.0 -4.61315 23.9 -3.51548 -16.7796 -8.29908 73.2582 1.20015 -30.7311 0.32981 40.9752 -0.400957 -5.10898 -3.41048 24.1344 -9.8885 -0.0 0.0 -0.0 10.3283 5.34643 -20.5315 -22.6677 37.6288 -60.6219 0.640485 17.6032 -0.0991714 7.86588 -0.210004 0.982048 -1.84682 -3.72181 10.6912 0.0 0.0 0.0 29.1487 -0.858022 -9.10599 -29.0895 0.0778623 4.4158 36.3858 22.6589 -4.74276 -36.6957 0.0 0.0 -0.0 0.0 -0.0 18.3331 20.8587 0.504043 -3.80379 -0.137818 -0.56739 42.3503 -26.7849 5.45279 -26.3436 0.0 0.0 0.0 0.0 0.0 
397.923 719.671 -1200.72 -153.543 -49.3096 -159.165 6.65224 0.361836 1.13273 6.6529 0.28903 1.15345 6.65779 0.177706 1.17576 6.65604 0.361153 1.13295 -12.2807 14.5306 -0.548622 -12.7671 27.9409 3.82338 -0.0 0.0 -0.0 -4.31767 24.2291 -3.03097 -17.9305 -13.9659 71.6857 1.01276 -26.6419 0.239802 42.7238 -0.498466 -5.31027 -3.78301 28.5336 -9.339 -0.0 0.0 -0.0 10.0293 7.28291 -19.9095 -21.9525 38.3797 -61.7154 0.682636 18.6834 -0.112298 8.08303 -0.213878 1.00952 -1.64802 -5.16077 8.68922 0.0 0.0 0.0 27.3705 -3.05022 -8.29692 -27.6634 0.126447 4.20233 35.7915 20.4518 -4.63071 -37.326 0.0 0.0 -0.0 0.0 -0.0 16.8487 20.5316 0.31906 -2.89509 -0.108328 -0.43105 42.6942 -26.9025 5.48904 -27.0381 0.0 0.0 0.0 0.0 0.0 
405.049 720.306 -1201.71 -152.861 -50.4682 -158.613 6.62873 0.189555 1.15108 6.62946 0.115929 1.16081 6.63084 0.00410776 1.16658 6.62899 0.188283 1.15129 -11.7636 12.7085 -0.497558 -12.0873 24.4098 3.16263 -0.0 0.0 -0.0 -4.16313 24.4191 -2.77607 -18.5934 -13.6482 71.715 0.948882 -25.1754 0.211891 42.2781 -0.473026 -5.25924 -4.32021 28.9125 -12.0517 -0.0 0.0 -0.0 9.5245 5.38554 -18.8139 -21.7408 38.2664 -61.3915 0.763517 20.7178 -0.139567 8.65625 -0.223605 1.08209 -0.468031 -1.49242 2.48513 0.0 0.0 0.0 26.8574 -1.14991 -7.37466 -24.9335 0.204554 3.79069 38.4744 24.0987 -4.99146 -34.5219 0.0 0.0 -0.0 0.0 -0.0 16.6116 19.397 0.767178 -3.98268 -0.143368 -0.594283 42.6583 -26.8094 5.48214 -26.2827 0.0 0.0 0.0 0.0 0.0 
409.425 718.305 -1199.91 -152.711 -50.0257 -157.687 6.7613 0.34786 1.02063 6.76183 0.282213 1.0407 6.76619 0.183681 1.06252 6.76478 0.349172 1.02019 -11.1623 15.1563 -2.1099 -11.5958 30.0461 2.21975 -0.0 0.0 -0.0 -3.90255 24.3387 -2.44155 -20.0922 -17.2217 70.3498 0.92079 -24.5189 0.200087 43.8789 -0.566245 -5.44161 -3.67789 28.7569 -8.62672 -0.0 0.0 -0.0 9.73117 6.10532 -19.261 -21.4932 39.0962 -61.2692 0.759199 20.6105 -0.138043 7.81465 -0.209074 0.97557 -1.53591 -4.30501 8.33998 0.0 0.0 0.0 28.6558 -1.84764 -8.72253 -29.7503 0.0535505 4.51429 36.2387 15.2963 -4.58449 -37.8625 0.0 0.0 -0.0 0.0 -0.0 15.8284 20.173 -0.108462 -1.6628 -0.0648853 -0.246924 42.5691 -26.3811 5.45762 -28.7456 0.0 0.0 0.0 0.0 0.0 
412.663 718.858 -1205.24 -150.954 -51.3704 -156.304 6.69117 0.116051 1.03342 6.69176 0.0500602 1.03871 6.69189 -0.0486551 1.03877 6.6904 0.116001 1.03342 -10.8515 12.9572 -2.47416 -11.131 26.1062 1.12259 -0.0 0.0 -0.0 -3.70437 24.1137 -2.22271 -19.8327 -17.5122 71.5733 0.806972 -21.789 0.15532 43.7798 -0.560322 -5.43039 -3.9498 28.9141 -10.0143 -0.0 0.0 -0.0 9.49542 5.84366 -18.7558 -20.3869 38.9916 -60.7994 0.777505 21.0643 -0.144555 9.04456 -0.229781 1.13131 -1.27436 -3.71089 6.87092 0.0 0.0 0.0 28.0271 1.90406 -7.34945 -22.7372 0.253095 3.45718 39.3752 22.4816 -5.03273 -37.3513 0.0 0.0 -0.0 0.0 -0.0 16.0045 22.2071 1.05477 -2.13716 -0.0820775 -0.317692 42.5879 -27.8124 5.51544 -28.9615 0.0 0.0 0.0 0.0 0.0 
424.003 716.03 -1219.75 -152.387 -51.3151 -158.194 6.54477 0.208622 1.23684 6.54561 0.129502 1.2476 6.54733 0.00747132 1.25428 6.5452 0.205453 1.23737 -13.5097 12.2537 -2.05096 -13.953 24.6065 1.94644 -0.0 0.0 -0.0 -2.93279 24.0035 -1.19672 -20.4747 -16.4928 72.0481 0.65134 -17.8826 0.102479 44.0285 -0.575216 -5.45852 -4.20545 28.9336 -11.4049 -0.0 0.0 -0.0 8.90328 5.98185 -17.4996 -19.0412 39.3071 -60.6133 0.846796 22.7568 -0.170415 8.65847 -0.223641 1.08237 -1.09529 -2.55127 6.19886 0.0 0.0 0.0 27.247 2.64644 -5.9055 -23.8802 0.229429 3.63098 37.3873 16.6534 -4.71613 -38.6171 0.0 0.0 -0.0 0.0 -0.0 17.5014 24.5403 1.44516 -10.156 -0.283095 -1.53087 43.5441 -26.8131 5.56284 -22.6884 0.0 0.0 0.0 0.0 0.0 
427.97 714.469 -1230.35 -152.211 -51.9238 -158.075 6.42483 0.161751 1.16726 6.42558 0.0871523 1.17519 6.42642 -0.0301249 1.17803 6.42452 0.156288 1.16801 -13.8759 9.44288 -0.19226 -14.127 18.1269 2.8247 -0.0 0.0 -0.0 -2.13447 23.3451 -0.227092 -20.3998 -15.3282 72.6402 0.623588 -17.1664 0.0941227 45.6191 -0.67333 -5.63684 -4.20256 29.1002 -11.2797 -0.0 0.0 -0.0 8.71189 9.90023 -17.0416 -19.0957 39.597 -59.5331 0.838266 22.5506 -0.167129 9.15703 -0.231507 1.14557 -0.579918 0.557824 4.11671 0.0 0.0 0.0 25.5734 -0.536124 -3.84904 -21.5404 0.274153 3.27474 39.3402 19.0909 -4.94689 -38.5959 0.0 0.0 -0.0 0.0 -0.0 19.3575 25.1151 2.14524 -14.3868 -0.320263 -2.17882 40.64 -28.0061 5.33781 -19.973 0.0 0.0 0.0 0.0 0.0 
439.616 713.078 -1243.31 -152.752 -52.2557 -158.978 6.40464 0.272865 1.02907 6.4052 0.206833 1.04435 6.40824 0.101658 1.05977 6.40677 0.267743 1.03042 -14.7741 7.31594 0.808949 -14.9268 13.5024 3.18359 -0.0 0.0 -0.0 -1.48181 23.5901 0.706789 -20.1816 -15.364 72.8792 0.551332 -15.2759 0.0739357 47.2161 -0.776799 -5.81311 -4.018 28.9008 -10.3964 -0.0 0.0 -0.0 8.11205 11.1595 -15.7143 -19.1245 39.4219 -58.9327 0.837864 22.5409 -0.166975 9.26399 -0.233124 1.15914 -0.335583 3.09081 3.56527 0.0 0.0 0.0 24.0136 -1.23976 -1.9953 -20.2953 0.292011 3.08453 36.6439 18.836 -4.68291 -39.9152 0.0 0.0 -0.0 0.0 -0.0 19.8063 27.1223 3.55099 -18.1728 -0.31291 -2.75955 38.6582 -25.9747 5.06874 -17.1403 0.0 0.0 0.0 0.0 0.0 
450.671 714.962 -1255.72 -152.658 -52.705 -158.918 6.43185 0.369594 0.857818 6.4322 0.314262 0.879595 6.43653 0.225439 0.906433 6.43557 0.365759 0.859459 -14.0493 6.57211 1.21229 -14.1511 11.8016 3.23478 -0.0 0.0 -0.0 -1.10539 23.8146 1.2523 -19.5616 -15.149 73.4712 0.55154 -15.2814 0.0739904 49.4933 -0.932776 -6.05938 -4.39886 28.7119 -12.6218 -0.0 0.0 -0.0 7.77353 11.3772 -14.9796 -21.0196 38.4188 -57.817 0.927027 24.6653 -0.202682 9.40512 -0.235217 1.17704 0.0366704 8.06043 3.17568 0.0 0.0 0.0 22.9553 -0.126515 -0.517189 -17.607 0.316448 2.67281 41.9078 18.7508 -5.17179 -39.0582 0.0 0.0 -0.0 0.0 -0.0 19.1039 27.1454 5.27155 -18.4878 -0.31057 -2.80782 38.0972 -26.2507 5.02165 -15.2896 0.0 0.0 0.0 0.0 0.0 
